<svg version="1.1" id="Layer_1" xmlns="http://www.w3.org/2000/svg" xmlns:xlink="http://www.w3.org/1999/xlink" x="0px" y="0px" viewBox="0 0 256 256" style="enable-background:new 0 0 256 256;" xml:space="preserve" width="128" height="128">
<path d="M91.1,93.1V63.6L128,34.4l36.9,29.2v29.5c0,0-36.9-29.6-36.9-29.6L91.1,93.1z"/>
<path d="M91.1,57.7V28.2L128-1l36.9,29.2v29.5c0,0-36.9-29.6-36.9-29.6L91.1,57.7z"/>
<path d="M91.1,128.5V99L128,69.8L164.9,99v29.5c0,0-36.9-29.6-36.9-29.6L91.1,128.5z"/>
<path d="M91.1,163.9v-29.5l36.9-29.2l36.9,29.2v29.5c0,0-36.9-29.6-36.9-29.6L91.1,163.9z"/>
<path d="M91.1,199.3v-29.5l36.9-29.2l36.9,29.2v29.5c0,0-36.9-29.6-36.9-29.6L91.1,199.3z"/>
<path d="M91.1,234.6v-29.5l36.9-29.2l36.9,29.2v29.5c0,0-36.9-29.6-36.9-29.6L91.1,234.6z"/>
<path d="M91.1,270v-29.5l36.9-29.2l36.9,29.2V270c0,0-36.9-29.6-36.9-29.6L91.1,270z"/>
<path d="M91.1,305.4v-29.5l36.9-29.2l36.9,29.2v29.5c0,0-36.9-29.6-36.9-29.6L91.1,305.4z"/>
</svg>